# xmcd
#
# Track frame offsets:
#	182
#	19995
#	38560
#	62630
#	78590
#	97972
#	115285
#	132255
#	165047
#	179705
#	194890
#	210672
#	230962
#	252122
#
# Disc length: 3542 seconds
#
# Revision: 0
# Processed by: cddbd v1.4PL0 Copyright (c) Steve Scherf et al.
# Submitted via: EasyCDDAExtractor 4.6.9.1
#
DISCID=c30dd40e
DTITLE=Special Offer - only blues can take me high
DYEAR=1900
DGENRE=Blues
TTITLE0=i cant stop drinkin
TTITLE1=mothers bad little child
TTITLE2=she´s feeling fine
TTITLE3=what have i done
TTITLE4=that aint right
TTITLE5=only blues can take me high
TTITLE6=blow job
TTITLE7=true love
TTITLE8=special offer
TTITLE9=i´m a bum
TTITLE10=Marilyn
TTITLE11=standing in the rain
TTITLE12=riding drunk
TTITLE13=Leberzirrhose
EXTD=
EXTT0=
EXTT1=
EXTT2=
EXTT3=
EXTT4=
EXTT5=
EXTT6=
EXTT7=
EXTT8=
EXTT9=
EXTT10=
EXTT11=
EXTT12=
EXTT13=
PLAYORDER=
